<?xml version="1.0" encoding="UTF-8"?>
<svg id="Layer_2" data-name="Layer 2" xmlns="http://www.w3.org/2000/svg" viewBox="0 0 190.59 187.9">
  <defs>
    <style>
      .cls-1 {
        fill: #5da6ae;
      }
    </style>
  </defs>
  <g id="Layer_1-2" data-name="Layer 1">
    <path class="cls-1" d="M60.83,0L0,60.83v22.8L83.63,0h-22.8ZM190.58,66.96c0-14.57-1.57-27.38-10.14-39.51C169.59,12.09,153.33,2.45,135.03,.42L0,135.45v47.45c0,4.24,4.95,6.55,8.21,3.83l45.51-38.02c.9-.76,2.04-1.17,3.22-1.17h60.19c10.39,0,20.93-.48,31.16-2.7,15.41-3.35,27.55-16.06,34.69-29.56,8.1-15.31,7.6-31.44,7.6-48.32ZM97.8,0L0,97.81v23.47L121.28,0h-23.48ZM5.02,0C2.25,0,0,2.25,0,5.02V46.65L46.66,0H5.02Z"/>
  </g>
</svg>